<svg xmlns="http://www.w3.org/2000/svg" width="1200" height="630" viewBox="0 0 1200 630">
  <defs>
    <linearGradient id="bg" x1="0" y1="0" x2="1" y2="1">
      <stop offset="0" stop-color="#1b1712"/>
      <stop offset="1" stop-color="#14110d"/>
    </linearGradient>
  </defs>
  <rect width="1200" height="630" fill="url(#bg)"/>
  <g transform="translate(96,150)">
    <rect x="0" y="0" width="86" height="104" rx="14" fill="#f59e0b"/>
    <rect x="0" y="0" width="24" height="104" rx="12" fill="#2dd4bf"/>
    <line x1="44" y1="30" x2="70" y2="30" stroke="#14110d" stroke-width="8" stroke-linecap="round"/>
    <line x1="44" y1="52" x2="70" y2="52" stroke="#14110d" stroke-width="8" stroke-linecap="round"/>
    <line x1="44" y1="74" x2="62" y2="74" stroke="#14110d" stroke-width="8" stroke-linecap="round"/>
  </g>
  <text x="210" y="232" font-family="-apple-system,Segoe UI,Roboto,Helvetica,Arial,sans-serif" font-size="64" font-weight="800" fill="#f0ebe2" letter-spacing="-1">Casual Note</text>
  <text x="96" y="352" font-family="-apple-system,Segoe UI,Roboto,Helvetica,Arial,sans-serif" font-size="46" font-weight="700" fill="#f0ebe2" letter-spacing="-1">Casually a notebook.</text>
  <text x="96" y="412" font-family="-apple-system,Segoe UI,Roboto,Helvetica,Arial,sans-serif" font-size="46" font-weight="700" fill="#f59e0b" letter-spacing="-1">Quietly, the best local meeting assistant.</text>
  <text x="96" y="486" font-family="-apple-system,Segoe UI,Roboto,Helvetica,Arial,sans-serif" font-size="30" fill="#a89e8d">Notes · Reminders · Tasks · Meeting Intelligence — 100% local, encrypted, no telemetry.</text>
  <g transform="translate(96,520)" font-family="-apple-system,Segoe UI,Roboto,Helvetica,Arial,sans-serif" font-size="24" font-weight="600">
    <rect x="0" y="0" width="150" height="44" rx="22" fill="none" stroke="#332c22" stroke-width="2"/>
    <text x="26" y="29" fill="#a89e8d">macOS</text>
    <rect x="166" y="0" width="170" height="44" rx="22" fill="none" stroke="#332c22" stroke-width="2"/>
    <text x="192" y="29" fill="#a89e8d">Windows</text>
    <rect x="352" y="0" width="130" height="44" rx="22" fill="none" stroke="#332c22" stroke-width="2"/>
    <text x="378" y="29" fill="#a89e8d">Linux</text>
    <text x="520" y="29" fill="#2dd4bf" font-weight="700">Apache-2.0 · open source</text>
  </g>
</svg>
