<svg xmlns="http://www.w3.org/2000/svg" width="1200" height="630" viewBox="0 0 1200 630">
  <defs>
    <linearGradient id="bg" x1="0" y1="0" x2="1" y2="1">
      <stop offset="0" stop-color="#1b1712"/>
      <stop offset="1" stop-color="#100e0b"/>
    </linearGradient>
    <radialGradient id="glow" cx="0.5" cy="0" r="0.8">
      <stop offset="0" stop-color="#e1a96a" stop-opacity="0.12"/>
      <stop offset="1" stop-color="#e1a96a" stop-opacity="0"/>
    </radialGradient>
  </defs>
  <rect width="1200" height="630" fill="url(#bg)"/>
  <rect width="1200" height="360" fill="url(#glow)"/>

  <!-- brand row: notebook monogram + wordmark -->
  <g transform="translate(96,92)">
    <rect x="0" y="0" width="64" height="80" rx="13" fill="#f2ede4"/>
    <rect x="0" y="0" width="18" height="80" rx="9" fill="#e1a96a"/>
    <line x1="32" y1="24" x2="52" y2="24" stroke="#8a7c66" stroke-width="4" stroke-linecap="round"/>
    <line x1="32" y1="40" x2="52" y2="40" stroke="#8a7c66" stroke-width="4" stroke-linecap="round"/>
    <line x1="32" y1="56" x2="46" y2="56" stroke="#8a7c66" stroke-width="4" stroke-linecap="round"/>
  </g>
  <text x="184" y="150" font-family="-apple-system,Segoe UI,Roboto,Helvetica,Arial,sans-serif" font-size="46" font-weight="700" fill="#f2ede4" letter-spacing="-1">Casual Note</text>

  <!-- headline -->
  <text x="96" y="332" font-family="-apple-system,Segoe UI,Roboto,Helvetica,Arial,sans-serif" font-size="58" font-weight="700" fill="#f2ede4" letter-spacing="-1.5">The notebook that keeps everything,</text>
  <text x="96" y="404" font-family="-apple-system,Segoe UI,Roboto,Helvetica,Arial,sans-serif" font-size="58" font-weight="700" fill="#e1a96a" letter-spacing="-1.5">and keeps it private.</text>

  <!-- subtitle -->
  <text x="96" y="466" font-family="-apple-system,Segoe UI,Roboto,Helvetica,Arial,sans-serif" font-size="28" fill="#a89e8d">Notes · Reminders · Tasks · Meeting intelligence — 100% local, encrypted, no telemetry.</text>

  <!-- platform + license -->
  <g transform="translate(96,520)" font-family="-apple-system,Segoe UI,Roboto,Helvetica,Arial,sans-serif" font-size="24" font-weight="600">
    <rect x="0" y="0" width="118" height="44" rx="22" fill="none" stroke="#3a3226" stroke-width="2"/>
    <text x="24" y="29" fill="#c9bfad">macOS</text>
    <rect x="134" y="0" width="140" height="44" rx="22" fill="none" stroke="#3a3226" stroke-width="2"/>
    <text x="158" y="29" fill="#c9bfad">Windows</text>
    <rect x="294" y="0" width="106" height="44" rx="22" fill="none" stroke="#3a3226" stroke-width="2"/>
    <text x="318" y="29" fill="#c9bfad">Linux</text>
    <text x="432" y="29" fill="#e1a96a" font-weight="700">Apache-2.0 · open source</text>
  </g>
</svg>
